<?xml version="1.0" encoding="utf-8"?>
<!-- Generator: Adobe Illustrator 23.0.1, SVG Export Plug-In . SVG Version: 6.00 Build 0)  -->
<svg version="1.1" id="Layer_1" xmlns="http://www.w3.org/2000/svg" xmlns:xlink="http://www.w3.org/1999/xlink" x="0px" y="0px"
	 viewBox="0 0 512 512" style="enable-background:new 0 0 512 512;" xml:space="preserve">
<style type="text/css">
	.st0{fill:#E17055;}
</style>
<path class="st0" d="M270.9,350.6c-0.7-8.2-7.6-14.6-15.9-14.6c-7.6,0-14,5.4-15.6,12.5L223.8,427c-0.5,2.3-0.8,4.6-0.8,7
	c0,17.7,14.3,30,32,30s32-12.3,32-30c0-2.9-0.4-5.7-1.1-8.4L270.9,350.6z M388.9,386.3c-1.7-1.4-3.3-2.9-5.1-3.9l-59.6-43.5
	c-5.8-3.8-12-3.7-16.5,0.9c-4.1,4.1-4.7,10.4-1.7,15.4l45,61.8c0.9,1.5,2.2,2.8,3.4,4.2c7.8,9.1,25.1,9.6,34.6,0
	C398.4,411.4,398.3,394,388.9,386.3L388.9,386.3z M435.4,320h-59.5c-3.9,0-7.4,2.2-8.1,6.2c-0.6,3.6,1.3,7.1,4.7,8.8h0.1l57.7,17.8
	c8.3,1.9,17.7-5.5,17.7-14.8C448,326.2,443.2,320,435.4,320L435.4,320z M139.2,335c3.3-1.6,5.3-5.2,4.7-8.8c-0.7-4-3.9-6.2-8.1-6.2
	H76.3c-7.6,0-12.3,8.3-12.3,17.6s9.1,17.1,17.4,15.2L139.2,335L139.2,335L139.2,335z M187.9,338.8l-59.6,43.4
	c-1.8,1.1-3.6,2.4-5.1,3.9c-9.6,9.6-9.6,25.1,0,34.6c9.6,9.6,25.1,9.6,34.6,0c1.3-1.3,2.4-2.7,3.4-4.2l45-61.6
	c3-5,2.5-11.2-1.7-15.3C199.9,335.1,192.7,334.8,187.9,338.8L187.9,338.8z M358.7,138.7c0-57.6-72.4-90.7-96-90.7
	c12,80.8-101.7,113-112,181.3s48,90.7,48,90.7c16.3-56.6,72.4-75.6,109.7-99.8C349.1,193.8,358.7,168.9,358.7,138.7z M358.7,259.6
	c5-14.7,1.9-49.3-3-63.4c-9,17.5-26.3,32.4-47.2,46c-8.6,5.6-20.9,10.8-29.8,15.9c-18.7,10.5-34,20.6-46.3,34.4
	c11.3,16.4,31.3,27.7,46.3,27.7C314.7,320,342.7,306.5,358.7,259.6z"/>
<path class="st0" d="M161.8,171.9c11.7-15.1,24.9-23.8,38.2-36.2c13.4-12.5,22.1-21.2,27.5-31.3c-10.7-20.1-30.8-28.1-44.7-26.1
	c2.3,28.6-30,44-32,64.8C149.5,155.7,156.2,168.1,161.8,171.9L161.8,171.9z"/>
</svg>
