<svg id="Layer_1" data-name="Layer 1" xmlns="http://www.w3.org/2000/svg" viewBox="0 0 37 30"><defs><style>.cls-1{fill:#2d3436;}.cls-2{fill:#55efc4;}</style></defs><title>navbar-icon</title><circle class="cls-1" cx="18.5" cy="15" r="15"/><g id="j6LWny"><path class="cls-2" d="M12.19,13a2.77,2.77,0,1,1-2.75-2.87A2.76,2.76,0,0,1,12.19,13Z"/><path class="cls-2" d="M24.6,12.89a2.78,2.78,0,0,1,2.74-2.81h0a2.8,2.8,0,1,1,.41,5.59h-.41A2.77,2.77,0,0,1,24.6,12.89Z"/><path class="cls-2" d="M18.52,19.92A6.89,6.89,0,0,1,13,17.35c-.47-.57-.5-1.17,0-1.54s1-.11,1.4.4a5.23,5.23,0,0,0,7.36.78,4.94,4.94,0,0,0,.85-.86.82.82,0,0,1,1.06-.45l.23.14c.51.37.42.88.08,1.34A6.3,6.3,0,0,1,18.52,19.92Z"/></g></svg>