<?xml version="1.0" encoding="utf-8"?>
<!-- Generator: Adobe Illustrator 23.0.1, SVG Export Plug-In . SVG Version: 6.00 Build 0)  -->
<svg version="1.1" id="Layer_1" xmlns="http://www.w3.org/2000/svg" xmlns:xlink="http://www.w3.org/1999/xlink" x="0px" y="0px"
	 viewBox="0 0 512 512" style="enable-background:new 0 0 512 512;" xml:space="preserve">
<style type="text/css">
	.st0{fill:#0984E3;}
</style>
<path class="st0" d="M405.3,80H318c-7.1-27.6-32.2-48-62-48s-54.9,20.4-62,48h-87.3C83.2,80,64,99.2,64,122.7v314.7
	c0,23.5,19.2,42.7,42.7,42.7h298.7c23.5,0,42.7-19.2,42.7-42.7V122.7C448,99.2,428.8,80,405.3,80z M256,80
	c11.7,0,21.3,9.6,21.3,21.3s-9.6,21.3-21.3,21.3s-21.3-9.6-21.3-21.3S244.3,80,256,80z M408,440H104V120h40v72h224v-72h40V440z"/>
</svg>
